<?xml version="1.0" encoding="UTF-8" standalone="no"?>
<!DOCTYPE svg PUBLIC "-//W3C//DTD SVG 1.1//EN"
 "http://www.w3.org/Graphics/SVG/1.1/DTD/svg11.dtd">
<!-- Generated by graphviz version 13.1.2 (0)
 -->
<!-- Pages: 1 -->
<svg width="1943pt" height="311pt"
 viewBox="0.00 0.00 1943.00 311.00" xmlns="http://www.w3.org/2000/svg" xmlns:xlink="http://www.w3.org/1999/xlink">
<g id="graph0" class="graph" transform="scale(1 1) rotate(0) translate(4 307.09)">
<polygon fill="white" stroke="none" points="-4,4 -4,-307.09 1939.45,-307.09 1939.45,4 -4,4"/>
<!-- 1 -->
<g id="node1" class="node">
<title>1</title>
<ellipse fill="none" stroke="black" cx="88.03" cy="-57.54" rx="88.03" ry="23.51"/>
<polygon fill="none" stroke="black" points="34.78,-45.92 34.78,-69.17 79.03,-69.17 79.03,-45.92 34.78,-45.92"/>
<text xml:space="preserve" text-anchor="start" x="37.78" y="-53.87" font-family="Times,serif" font-weight="bold" font-size="14.00">start</text>
<polygon fill="none" stroke="black" points="79.03,-45.92 79.03,-69.17 141.28,-69.17 141.28,-45.92 79.03,-45.92"/>
<text xml:space="preserve" text-anchor="start" x="82.03" y="-52.87" font-family="Times,serif" font-size="14.00">exact: 0</text>
<polygon fill="none" stroke="black" points="33.78,-44.92 33.78,-70.17 142.28,-70.17 142.28,-44.92 33.78,-44.92"/>
</g>
<!-- 3 -->
<g id="node3" class="node">
<title>3</title>
<ellipse fill="none" stroke="black" cx="343.02" cy="-57.54" rx="82.2" ry="41.54"/>
<polygon fill="none" stroke="black" points="293.9,-58.67 293.9,-81.92 329.9,-81.92 329.9,-58.67 293.9,-58.67"/>
<text xml:space="preserve" text-anchor="start" x="296.9" y="-66.62" font-family="Times,serif" font-weight="bold" font-size="14.00">The</text>
<polygon fill="none" stroke="black" points="329.9,-58.67 329.9,-81.92 392.15,-81.92 392.15,-58.67 329.9,-58.67"/>
<text xml:space="preserve" text-anchor="start" x="332.9" y="-65.62" font-family="Times,serif" font-size="14.00">exact: 1</text>
<polygon fill="none" stroke="black" points="293.9,-33.17 293.9,-58.67 329.9,-58.67 329.9,-33.17 293.9,-33.17"/>
<text xml:space="preserve" text-anchor="start" x="296.9" y="-42.37" font-family="Bukyvede" font-size="14.00">The </text>
<polygon fill="none" stroke="black" points="329.9,-33.17 329.9,-58.67 392.15,-58.67 392.15,-33.17 329.9,-33.17"/>
<text xml:space="preserve" text-anchor="start" x="332.9" y="-41.24" font-family="Times,serif" font-size="14.00">A, B, C</text>
<polygon fill="none" stroke="black" points="292.9,-32.17 292.9,-82.92 393.15,-82.92 393.15,-32.17 292.9,-32.17"/>
</g>
<!-- 1&#45;&gt;3 -->
<g id="edge1" class="edge">
<title>1&#45;&gt;3</title>
<path fill="none" stroke="black" d="M176.45,-57.54C199.9,-57.54 225.32,-57.54 249.06,-57.54"/>
<polygon fill="black" stroke="black" points="249.04,-61.04 259.04,-57.54 249.04,-54.04 249.04,-61.04"/>
<text xml:space="preserve" text-anchor="middle" x="218.44" y="-61.49" font-family="Times,serif" font-size="14.00">A, B, C</text>
</g>
<!-- 2 -->
<g id="node2" class="node">
<title>2</title>
<ellipse fill="none" stroke="black" cx="1853.78" cy="-160.54" rx="81.67" ry="23.51"/>
<polygon fill="none" stroke="black" points="1805.03,-148.92 1805.03,-172.17 1840.28,-172.17 1840.28,-148.92 1805.03,-148.92"/>
<text xml:space="preserve" text-anchor="start" x="1808.03" y="-156.87" font-family="Times,serif" font-weight="bold" font-size="14.00">end</text>
<polygon fill="none" stroke="black" points="1840.28,-148.92 1840.28,-172.17 1902.53,-172.17 1902.53,-148.92 1840.28,-148.92"/>
<text xml:space="preserve" text-anchor="start" x="1843.28" y="-155.87" font-family="Times,serif" font-size="14.00">exact: 8</text>
<polygon fill="none" stroke="black" points="1804.03,-147.92 1804.03,-173.17 1903.53,-173.17 1903.53,-147.92 1804.03,-147.92"/>
</g>
<!-- 4 -->
<g id="node4" class="node">
<title>4</title>
<ellipse fill="none" stroke="black" cx="568.96" cy="-111.54" rx="78.49" ry="41.54"/>
<polygon fill="none" stroke="black" points="522.46,-112.67 522.46,-135.92 553.21,-135.92 553.21,-112.67 522.46,-112.67"/>
<text xml:space="preserve" text-anchor="start" x="525.46" y="-120.62" font-family="Times,serif" font-weight="bold" font-size="14.00">big</text>
<polygon fill="none" stroke="black" points="553.21,-112.67 553.21,-135.92 615.46,-135.92 615.46,-112.67 553.21,-112.67"/>
<text xml:space="preserve" text-anchor="start" x="556.21" y="-119.62" font-family="Times,serif" font-size="14.00">exact: 2</text>
<polygon fill="none" stroke="black" points="522.46,-87.17 522.46,-112.67 553.21,-112.67 553.21,-87.17 522.46,-87.17"/>
<text xml:space="preserve" text-anchor="start" x="525.46" y="-96.37" font-family="Bukyvede" font-size="14.00">big </text>
<polygon fill="none" stroke="black" points="553.21,-87.17 553.21,-112.67 615.46,-112.67 615.46,-87.17 553.21,-87.17"/>
<text xml:space="preserve" text-anchor="start" x="556.21" y="-95.24" font-family="Times,serif" font-size="14.00">A, B</text>
<polygon fill="none" stroke="black" points="521.46,-86.17 521.46,-136.92 616.46,-136.92 616.46,-86.17 521.46,-86.17"/>
</g>
<!-- 3&#45;&gt;4 -->
<g id="edge2" class="edge">
<title>3&#45;&gt;4</title>
<path fill="none" stroke="black" d="M417.66,-75.3C439.47,-80.56 463.49,-86.35 485.8,-91.73"/>
<polygon fill="black" stroke="black" points="484.93,-95.12 495.47,-94.06 486.57,-88.32 484.93,-95.12"/>
<text xml:space="preserve" text-anchor="middle" x="457.85" y="-91.73" font-family="Times,serif" font-size="14.00">A, B</text>
</g>
<!-- 11 -->
<g id="node11" class="node">
<title>11</title>
<ellipse fill="none" stroke="black" cx="981" cy="-41.54" rx="85.38" ry="41.54"/>
<polygon fill="none" stroke="black" points="929.62,-42.67 929.62,-65.92 970.12,-65.92 970.12,-42.67 929.62,-42.67"/>
<text xml:space="preserve" text-anchor="start" x="932.62" y="-50.62" font-family="Times,serif" font-weight="bold" font-size="14.00">grey</text>
<polygon fill="none" stroke="black" points="970.12,-42.67 970.12,-65.92 1032.37,-65.92 1032.37,-42.67 970.12,-42.67"/>
<text xml:space="preserve" text-anchor="start" x="973.12" y="-49.62" font-family="Times,serif" font-size="14.00">exact: 4</text>
<polygon fill="none" stroke="black" points="929.62,-17.17 929.62,-42.67 970.12,-42.67 970.12,-17.17 929.62,-17.17"/>
<text xml:space="preserve" text-anchor="start" x="932.62" y="-26.37" font-family="Bukyvede" font-size="14.00">grey </text>
<polygon fill="none" stroke="black" points="970.12,-17.17 970.12,-42.67 1032.37,-42.67 1032.37,-17.17 970.12,-17.17"/>
<text xml:space="preserve" text-anchor="start" x="973.12" y="-25.24" font-family="Times,serif" font-size="14.00">C</text>
<polygon fill="none" stroke="black" points="928.62,-16.17 928.62,-66.92 1033.37,-66.92 1033.37,-16.17 928.62,-16.17"/>
</g>
<!-- 3&#45;&gt;11 -->
<g id="edge3" class="edge">
<title>3&#45;&gt;11</title>
<path fill="none" stroke="black" d="M425.54,-55.49C542.87,-52.54 758.96,-47.1 883.91,-43.96"/>
<polygon fill="black" stroke="black" points="883.92,-47.46 893.83,-43.71 883.74,-40.46 883.92,-47.46"/>
<text xml:space="preserve" text-anchor="middle" x="670.7" y="-53.31" font-family="Times,serif" font-size="14.00">C</text>
</g>
<!-- 5 -->
<g id="node5" class="node">
<title>5</title>
<ellipse fill="none" stroke="black" cx="771.91" cy="-176.54" rx="77.96" ry="41.54"/>
<polygon fill="none" stroke="black" points="725.78,-177.67 725.78,-200.92 755.78,-200.92 755.78,-177.67 725.78,-177.67"/>
<text xml:space="preserve" text-anchor="start" x="728.78" y="-185.62" font-family="Times,serif" font-weight="bold" font-size="14.00">old</text>
<polygon fill="none" stroke="black" points="755.78,-177.67 755.78,-200.92 818.03,-200.92 818.03,-177.67 755.78,-177.67"/>
<text xml:space="preserve" text-anchor="start" x="758.78" y="-184.62" font-family="Times,serif" font-size="14.00">exact: 3</text>
<polygon fill="none" stroke="black" points="725.78,-152.17 725.78,-177.67 755.78,-177.67 755.78,-152.17 725.78,-152.17"/>
<text xml:space="preserve" text-anchor="start" x="728.78" y="-161.37" font-family="Bukyvede" font-size="14.00">old </text>
<polygon fill="none" stroke="black" points="755.78,-152.17 755.78,-177.67 818.03,-177.67 818.03,-152.17 755.78,-152.17"/>
<text xml:space="preserve" text-anchor="start" x="758.78" y="-160.24" font-family="Times,serif" font-size="14.00">A</text>
<polygon fill="none" stroke="black" points="724.78,-151.17 724.78,-201.92 819.03,-201.92 819.03,-151.17 724.78,-151.17"/>
</g>
<!-- 4&#45;&gt;5 -->
<g id="edge4" class="edge">
<title>4&#45;&gt;5</title>
<path fill="none" stroke="black" d="M636.59,-133.1C655.02,-139.06 675.16,-145.57 694.11,-151.7"/>
<polygon fill="black" stroke="black" points="692.77,-154.94 703.36,-154.69 694.92,-148.28 692.77,-154.94"/>
<text xml:space="preserve" text-anchor="middle" x="670.7" y="-147.99" font-family="Times,serif" font-size="14.00">A</text>
</g>
<!-- 6 -->
<g id="node6" class="node">
<title>6</title>
<ellipse fill="none" stroke="black" cx="981" cy="-160.54" rx="85.38" ry="41.54"/>
<polygon fill="none" stroke="black" points="929.62,-161.67 929.62,-184.92 970.12,-184.92 970.12,-161.67 929.62,-161.67"/>
<text xml:space="preserve" text-anchor="start" x="932.62" y="-169.62" font-family="Times,serif" font-weight="bold" font-size="14.00">gray</text>
<polygon fill="none" stroke="black" points="970.12,-161.67 970.12,-184.92 1032.37,-184.92 1032.37,-161.67 970.12,-161.67"/>
<text xml:space="preserve" text-anchor="start" x="973.12" y="-168.62" font-family="Times,serif" font-size="14.00">exact: 4</text>
<polygon fill="none" stroke="black" points="929.62,-136.17 929.62,-161.67 970.12,-161.67 970.12,-136.17 929.62,-136.17"/>
<text xml:space="preserve" text-anchor="start" x="932.62" y="-145.37" font-family="Bukyvede" font-size="14.00">gray </text>
<polygon fill="none" stroke="black" points="970.12,-136.17 970.12,-161.67 1032.37,-161.67 1032.37,-136.17 970.12,-136.17"/>
<text xml:space="preserve" text-anchor="start" x="973.12" y="-144.24" font-family="Times,serif" font-size="14.00">A, B</text>
<polygon fill="none" stroke="black" points="928.62,-135.17 928.62,-185.92 1033.37,-185.92 1033.37,-135.17 928.62,-135.17"/>
</g>
<!-- 4&#45;&gt;6 -->
<g id="edge5" class="edge">
<title>4&#45;&gt;6</title>
<path fill="none" stroke="black" d="M645.84,-102.47C702.57,-97.66 781.75,-95.13 849.87,-108.29 869.84,-112.15 890.64,-119.06 909.6,-126.61"/>
<polygon fill="black" stroke="black" points="908.25,-129.84 918.83,-130.41 910.91,-123.37 908.25,-129.84"/>
<text xml:space="preserve" text-anchor="middle" x="771.91" y="-112.24" font-family="Times,serif" font-size="14.00">B</text>
</g>
<!-- 5&#45;&gt;6 -->
<g id="edge6" class="edge">
<title>5&#45;&gt;6</title>
<path fill="none" stroke="black" d="M849.43,-170.63C861.05,-169.73 873.15,-168.8 885.09,-167.88"/>
<polygon fill="black" stroke="black" points="885.27,-171.37 894.97,-167.11 884.73,-164.39 885.27,-171.37"/>
<text xml:space="preserve" text-anchor="middle" x="872.74" y="-172.97" font-family="Times,serif" font-size="14.00">A</text>
</g>
<!-- 7 -->
<g id="node7" class="node">
<title>7</title>
<ellipse fill="none" stroke="black" cx="1444.17" cy="-160.54" rx="90.69" ry="41.54"/>
<polygon fill="none" stroke="black" points="1389.05,-161.67 1389.05,-184.92 1437.05,-184.92 1437.05,-161.67 1389.05,-161.67"/>
<text xml:space="preserve" text-anchor="start" x="1392.05" y="-169.62" font-family="Times,serif" font-weight="bold" font-size="14.00">koala</text>
<polygon fill="none" stroke="black" points="1437.05,-161.67 1437.05,-184.92 1499.3,-184.92 1499.3,-161.67 1437.05,-161.67"/>
<text xml:space="preserve" text-anchor="start" x="1440.05" y="-168.62" font-family="Times,serif" font-size="14.00">exact: 6</text>
<polygon fill="none" stroke="black" points="1389.05,-136.17 1389.05,-161.67 1437.05,-161.67 1437.05,-136.17 1389.05,-136.17"/>
<text xml:space="preserve" text-anchor="start" x="1392.05" y="-145.37" font-family="Bukyvede" font-size="14.00">koala</text>
<polygon fill="none" stroke="black" points="1437.05,-136.17 1437.05,-161.67 1499.3,-161.67 1499.3,-136.17 1437.05,-136.17"/>
<text xml:space="preserve" text-anchor="start" x="1440.05" y="-144.24" font-family="Times,serif" font-size="14.00">A, B</text>
<polygon fill="none" stroke="black" points="1388.05,-135.17 1388.05,-185.92 1500.3,-185.92 1500.3,-135.17 1388.05,-135.17"/>
</g>
<!-- 6&#45;&gt;7 -->
<g id="edge7" class="edge">
<title>6&#45;&gt;7</title>
<path fill="none" stroke="black" d="M1066.85,-160.54C1144.5,-160.54 1259.5,-160.54 1341.91,-160.54"/>
<polygon fill="black" stroke="black" points="1341.81,-164.04 1351.81,-160.54 1341.81,-157.04 1341.81,-164.04"/>
<text xml:space="preserve" text-anchor="middle" x="1203.04" y="-164.49" font-family="Times,serif" font-size="14.00">A</text>
</g>
<!-- 9 -->
<g id="node9" class="node">
<title>9</title>
<ellipse fill="none" stroke="black" cx="1203.04" cy="-76.54" rx="90.16" ry="41.54"/>
<polygon fill="none" stroke="black" points="1148.29,-77.67 1148.29,-100.92 1195.54,-100.92 1195.54,-77.67 1148.29,-77.67"/>
<text xml:space="preserve" text-anchor="start" x="1151.29" y="-85.62" font-family="Times,serif" font-weight="bold" font-size="14.00">fuzzy</text>
<polygon fill="none" stroke="black" points="1195.54,-77.67 1195.54,-100.92 1257.79,-100.92 1257.79,-77.67 1195.54,-77.67"/>
<text xml:space="preserve" text-anchor="start" x="1198.54" y="-84.62" font-family="Times,serif" font-size="14.00">exact: 5</text>
<polygon fill="none" stroke="black" points="1148.29,-52.17 1148.29,-77.67 1195.54,-77.67 1195.54,-52.17 1148.29,-52.17"/>
<text xml:space="preserve" text-anchor="start" x="1151.29" y="-61.37" font-family="Bukyvede" font-size="14.00">fuzzy </text>
<polygon fill="none" stroke="black" points="1195.54,-52.17 1195.54,-77.67 1257.79,-77.67 1257.79,-52.17 1195.54,-52.17"/>
<text xml:space="preserve" text-anchor="start" x="1198.54" y="-60.24" font-family="Times,serif" font-size="14.00">B, C</text>
<polygon fill="none" stroke="black" points="1147.29,-51.17 1147.29,-101.92 1258.79,-101.92 1258.79,-51.17 1147.29,-51.17"/>
</g>
<!-- 6&#45;&gt;9 -->
<g id="edge8" class="edge">
<title>6&#45;&gt;9</title>
<path fill="none" stroke="black" d="M1048.92,-135C1072.04,-126.17 1098.19,-116.19 1122.25,-107"/>
<polygon fill="black" stroke="black" points="1123.27,-110.36 1131.36,-103.52 1120.77,-103.82 1123.27,-110.36"/>
<text xml:space="preserve" text-anchor="middle" x="1089.63" y="-125.01" font-family="Times,serif" font-size="14.00">B</text>
</g>
<!-- 6&#45;&gt;11 -->
<g id="edge18" class="edge">
<title>6&#45;&gt;11</title>
<path fill="none" stroke="black" stroke-dasharray="5,2" d="M981,-118.57C981,-110.92 981,-102.85 981,-94.93"/>
<polygon fill="black" stroke="black" points="984.5,-95.01 981,-85.01 977.5,-95.01 984.5,-95.01"/>
<text xml:space="preserve" text-anchor="middle" x="969.37" y="-96.37" font-family="Times,serif" font-size="14.00">0.75</text>
</g>
<!-- 8 -->
<g id="node8" class="node">
<title>8</title>
<ellipse fill="none" stroke="black" cx="1660.38" cy="-261.54" rx="64.7" ry="41.54"/>
<polygon fill="none" stroke="black" points="1623.63,-262.67 1623.63,-285.92 1634.88,-285.92 1634.88,-262.67 1623.63,-262.67"/>
<text xml:space="preserve" text-anchor="start" x="1626.63" y="-270.62" font-family="Times,serif" font-weight="bold" font-size="14.00">:</text>
<polygon fill="none" stroke="black" points="1634.88,-262.67 1634.88,-285.92 1697.13,-285.92 1697.13,-262.67 1634.88,-262.67"/>
<text xml:space="preserve" text-anchor="start" x="1637.88" y="-269.62" font-family="Times,serif" font-size="14.00">exact: 7</text>
<polygon fill="none" stroke="black" points="1623.63,-237.17 1623.63,-262.67 1634.88,-262.67 1634.88,-237.17 1623.63,-237.17"/>
<text xml:space="preserve" text-anchor="start" x="1626.63" y="-246.37" font-family="Bukyvede" font-size="14.00">:</text>
<polygon fill="none" stroke="black" points="1634.88,-237.17 1634.88,-262.67 1697.13,-262.67 1697.13,-237.17 1634.88,-237.17"/>
<text xml:space="preserve" text-anchor="start" x="1637.88" y="-245.24" font-family="Times,serif" font-size="14.00">A</text>
<polygon fill="none" stroke="black" points="1622.63,-236.17 1622.63,-286.92 1698.13,-286.92 1698.13,-236.17 1622.63,-236.17"/>
</g>
<!-- 7&#45;&gt;8 -->
<g id="edge9" class="edge">
<title>7&#45;&gt;8</title>
<path fill="none" stroke="black" d="M1508.28,-190.3C1536.42,-203.57 1569.46,-219.15 1597.45,-232.35"/>
<polygon fill="black" stroke="black" points="1595.62,-235.35 1606.15,-236.45 1598.6,-229.02 1595.62,-235.35"/>
<text xml:space="preserve" text-anchor="middle" x="1571.9" y="-224.04" font-family="Times,serif" font-size="14.00">A</text>
</g>
<!-- 10 -->
<g id="node10" class="node">
<title>10</title>
<ellipse fill="none" stroke="black" cx="1660.38" cy="-160.54" rx="64.17" ry="41.54"/>
<polygon fill="none" stroke="black" points="1624,-161.67 1624,-184.92 1634.5,-184.92 1634.5,-161.67 1624,-161.67"/>
<text xml:space="preserve" text-anchor="start" x="1627" y="-169.62" font-family="Times,serif" font-weight="bold" font-size="14.00">.</text>
<polygon fill="none" stroke="black" points="1634.5,-161.67 1634.5,-184.92 1696.75,-184.92 1696.75,-161.67 1634.5,-161.67"/>
<text xml:space="preserve" text-anchor="start" x="1637.5" y="-168.62" font-family="Times,serif" font-size="14.00">exact: 7</text>
<polygon fill="none" stroke="black" points="1624,-136.17 1624,-161.67 1634.5,-161.67 1634.5,-136.17 1624,-136.17"/>
<text xml:space="preserve" text-anchor="start" x="1627" y="-145.37" font-family="Bukyvede" font-size="14.00">.</text>
<polygon fill="none" stroke="black" points="1634.5,-136.17 1634.5,-161.67 1696.75,-161.67 1696.75,-136.17 1634.5,-136.17"/>
<text xml:space="preserve" text-anchor="start" x="1637.5" y="-144.24" font-family="Times,serif" font-size="14.00">B</text>
<polygon fill="none" stroke="black" points="1623,-135.17 1623,-185.92 1697.75,-185.92 1697.75,-135.17 1623,-135.17"/>
</g>
<!-- 7&#45;&gt;10 -->
<g id="edge10" class="edge">
<title>7&#45;&gt;10</title>
<path fill="none" stroke="black" d="M1535.08,-160.54C1551.48,-160.54 1568.43,-160.54 1584.34,-160.54"/>
<polygon fill="black" stroke="black" points="1584.21,-164.04 1594.21,-160.54 1584.21,-157.04 1584.21,-164.04"/>
<text xml:space="preserve" text-anchor="middle" x="1571.9" y="-164.49" font-family="Times,serif" font-size="14.00">B</text>
</g>
<!-- 8&#45;&gt;2 -->
<g id="edge11" class="edge">
<title>8&#45;&gt;2</title>
<path fill="none" stroke="black" d="M1711.16,-235.27C1739.58,-220.28 1775.06,-201.55 1803.4,-186.6"/>
<polygon fill="black" stroke="black" points="1804.95,-189.74 1812.16,-181.98 1801.68,-183.55 1804.95,-189.74"/>
<text xml:space="preserve" text-anchor="middle" x="1748.86" y="-221.04" font-family="Times,serif" font-size="14.00">A</text>
</g>
<!-- 9&#45;&gt;7 -->
<g id="edge12" class="edge">
<title>9&#45;&gt;7</title>
<path fill="none" stroke="black" d="M1275.46,-101.63C1302.19,-111.02 1332.77,-121.76 1360.44,-131.48"/>
<polygon fill="black" stroke="black" points="1359.27,-134.78 1369.86,-134.79 1361.59,-128.17 1359.27,-134.78"/>
<text xml:space="preserve" text-anchor="middle" x="1316.45" y="-119.97" font-family="Times,serif" font-size="14.00">B</text>
</g>
<!-- 12 -->
<g id="node12" class="node">
<title>12</title>
<ellipse fill="none" stroke="black" cx="1444.17" cy="-59.54" rx="104.48" ry="41.54"/>
<polygon fill="none" stroke="black" points="1379.3,-60.67 1379.3,-83.92 1446.8,-83.92 1446.8,-60.67 1379.3,-60.67"/>
<text xml:space="preserve" text-anchor="start" x="1382.3" y="-68.62" font-family="Times,serif" font-weight="bold" font-size="14.00">wombat</text>
<polygon fill="none" stroke="black" points="1446.8,-60.67 1446.8,-83.92 1509.05,-83.92 1509.05,-60.67 1446.8,-60.67"/>
<text xml:space="preserve" text-anchor="start" x="1449.8" y="-67.62" font-family="Times,serif" font-size="14.00">exact: 6</text>
<polygon fill="none" stroke="black" points="1379.3,-35.17 1379.3,-60.67 1446.8,-60.67 1446.8,-35.17 1379.3,-35.17"/>
<text xml:space="preserve" text-anchor="start" x="1382.3" y="-44.37" font-family="Bukyvede" font-size="14.00">wombat</text>
<polygon fill="none" stroke="black" points="1446.8,-35.17 1446.8,-60.67 1509.05,-60.67 1509.05,-35.17 1446.8,-35.17"/>
<text xml:space="preserve" text-anchor="start" x="1449.8" y="-43.24" font-family="Times,serif" font-size="14.00">C</text>
<polygon fill="none" stroke="black" points="1378.3,-34.17 1378.3,-84.92 1510.05,-84.92 1510.05,-34.17 1378.3,-34.17"/>
</g>
<!-- 9&#45;&gt;12 -->
<g id="edge13" class="edge">
<title>9&#45;&gt;12</title>
<path fill="none" stroke="black" d="M1292.4,-70.26C1304.53,-69.4 1317.11,-68.5 1329.6,-67.62"/>
<polygon fill="black" stroke="black" points="1329.8,-71.11 1339.53,-66.91 1329.3,-64.13 1329.8,-71.11"/>
<text xml:space="preserve" text-anchor="middle" x="1316.45" y="-72.5" font-family="Times,serif" font-size="14.00">C</text>
</g>
<!-- 10&#45;&gt;2 -->
<g id="edge14" class="edge">
<title>10&#45;&gt;2</title>
<path fill="none" stroke="black" d="M1724.84,-160.54C1736.22,-160.54 1748.29,-160.54 1760.29,-160.54"/>
<polygon fill="black" stroke="black" points="1760.24,-164.04 1770.24,-160.54 1760.24,-157.04 1760.24,-164.04"/>
<text xml:space="preserve" text-anchor="middle" x="1748.86" y="-164.49" font-family="Times,serif" font-size="14.00">B</text>
</g>
<!-- 11&#45;&gt;9 -->
<g id="edge15" class="edge">
<title>11&#45;&gt;9</title>
<path fill="none" stroke="black" d="M1062.68,-54.38C1076.86,-56.63 1091.73,-59 1106.27,-61.31"/>
<polygon fill="black" stroke="black" points="1105.38,-64.71 1115.8,-62.83 1106.48,-57.8 1105.38,-64.71"/>
<text xml:space="preserve" text-anchor="middle" x="1089.63" y="-62.99" font-family="Times,serif" font-size="14.00">C</text>
</g>
<!-- 13 -->
<g id="node13" class="node">
<title>13</title>
<ellipse fill="none" stroke="black" cx="1660.38" cy="-59.54" rx="65.23" ry="41.54"/>
<polygon fill="none" stroke="black" points="1623.25,-60.67 1623.25,-83.92 1635.25,-83.92 1635.25,-60.67 1623.25,-60.67"/>
<text xml:space="preserve" text-anchor="start" x="1626.25" y="-68.62" font-family="Times,serif" font-weight="bold" font-size="14.00">!</text>
<polygon fill="none" stroke="black" points="1635.25,-60.67 1635.25,-83.92 1697.5,-83.92 1697.5,-60.67 1635.25,-60.67"/>
<text xml:space="preserve" text-anchor="start" x="1638.25" y="-67.62" font-family="Times,serif" font-size="14.00">exact: 7</text>
<polygon fill="none" stroke="black" points="1623.25,-35.17 1623.25,-60.67 1635.25,-60.67 1635.25,-35.17 1623.25,-35.17"/>
<text xml:space="preserve" text-anchor="start" x="1626.25" y="-44.37" font-family="Bukyvede" font-size="14.00">!</text>
<polygon fill="none" stroke="black" points="1635.25,-35.17 1635.25,-60.67 1697.5,-60.67 1697.5,-35.17 1635.25,-35.17"/>
<text xml:space="preserve" text-anchor="start" x="1638.25" y="-43.24" font-family="Times,serif" font-size="14.00">C</text>
<polygon fill="none" stroke="black" points="1622.25,-34.17 1622.25,-84.92 1698.5,-84.92 1698.5,-34.17 1622.25,-34.17"/>
</g>
<!-- 12&#45;&gt;13 -->
<g id="edge16" class="edge">
<title>12&#45;&gt;13</title>
<path fill="none" stroke="black" d="M1549.14,-59.54C1560.69,-59.54 1572.29,-59.54 1583.4,-59.54"/>
<polygon fill="black" stroke="black" points="1583.26,-63.04 1593.26,-59.54 1583.26,-56.04 1583.26,-63.04"/>
<text xml:space="preserve" text-anchor="middle" x="1571.9" y="-63.49" font-family="Times,serif" font-size="14.00">C</text>
</g>
<!-- 13&#45;&gt;2 -->
<g id="edge17" class="edge">
<title>13&#45;&gt;2</title>
<path fill="none" stroke="black" d="M1711.16,-85.82C1739.58,-100.81 1775.06,-119.53 1803.4,-134.49"/>
<polygon fill="black" stroke="black" points="1801.68,-137.54 1812.16,-139.11 1804.95,-131.35 1801.68,-137.54"/>
<text xml:space="preserve" text-anchor="middle" x="1748.86" y="-110.96" font-family="Times,serif" font-size="14.00">C</text>
</g>
</g>
</svg>
